<svg width="230" height="250" viewBox="0 0 230 250" fill="none" xmlns="http://www.w3.org/2000/svg">
<path d="M86.4376 210.419C86.6506 214.035 86.8976 217.643 87.0594 221.267C87.1787 223.909 87.4513 226.451 89.5128 228.456C96.907 235.638 106.107 232.055 114.429 231.913C120.392 231.812 122.624 226.233 123.919 220.679V233.507C131.364 244.22 142.08 240.067 151.127 239.656C157.993 239.346 160.336 232.852 159.484 226.049H179.741C188.728 236.116 217.606 240.554 217.043 221.25C222.666 221.3 226.158 224.555 229.489 228.909C224.156 237.81 214.905 239.555 206.489 241.342C167.815 249.522 128.502 250.914 89.2317 249.161C64.1021 248.02 38.7084 246.644 14.4306 238.733C9.13216 236.997 3.96139 235.008 0.48584 229.22C5.14547 220.931 14.1155 219.094 22.2166 217.324C43.3169 212.693 64.6899 209.555 86.4376 210.419Z" fill="black" fill-opacity="0.1"/>
<path d="M222.416 88.5514C220.517 88.9206 219.861 90.2293 219.861 91.9072C220.227 113.115 216.206 134.114 216.769 155.322L211.922 155.993C206.981 156.228 206.938 159.734 206.947 163.249C207.004 184.843 207.066 206.44 207.134 228.04C199.987 230.515 193.079 231.077 186.63 225.917C187.005 218.166 187.371 210.749 187.823 201.454C176.493 207.251 165.129 203.426 154.328 206.051C149.847 207.025 149.805 210.624 149.753 213.963C149.66 220.674 149.822 227.452 149.873 234.206C144.762 237.394 139.165 236.102 133.909 235.045C129.718 234.206 128.5 230.615 128.798 226.488C129.292 220.531 129.718 214.533 127.196 208.946C124.786 206.999 122.179 207.394 119.53 207.327C114.862 213.577 121.787 224.726 111.233 227.461C105.449 228.946 98.5571 229.877 92.7134 224.105C91.4953 215.355 92.0405 206.068 91.9979 196.421C100.278 194.541 108.183 195.775 115.969 195.959C121.932 196.102 126.864 194.843 130.859 190.456C137.095 181.882 149.498 181.756 155.197 172.494C156.952 169.608 159.371 166.622 154.081 163.946C148.919 167.234 146.925 174.961 138.748 175.204V120.758C138.748 99.34 121.259 79.3317 99.4856 76.7646C79.6289 74.4072 60.3515 73.6942 40.35 71.4878C45.2737 64.8435 45.5293 58.065 43.8256 51.018C41.8152 42.3267 47.48 36.3535 51.9863 29.9441C53.5367 27.7209 56.91 26.6723 56.6715 22.5784C44.6007 24.4576 35.8011 19.9105 30 9.47435C45.6741 2.41894 57.4978 6.16894 62.677 20.179C88.4797 3.68571 130.314 -0.861263 149.873 27.788C153.127 18.5598 158.272 12.9978 168.409 15.6153C176.076 17.6035 178.299 20.8921 176.076 28.6354C175.352 31.1522 176.732 33.9542 174.636 36.1354C170.607 35.3636 170.607 35.3636 167.702 31.7646C165.061 31.429 163.443 33.4424 161.313 34.4072C159.422 35.2461 157.412 35.8753 154.498 36.9239C159.763 48.0397 161.075 59.617 156.611 71.6639C163.962 67.1841 164.201 60.4978 164.226 53.283C177.379 49.8434 190.438 45.9005 204.263 45.8586C218.345 45.4811 224.384 55.4559 224.06 65.0616C222.859 72.8337 222.308 80.6903 222.416 88.5514ZM78.1126 66.4458C80.8726 66.2109 82.7211 64.9358 82.8063 61.6556C81.2559 58.1992 78.6067 56.7562 75.7274 59.7512C73.2826 62.3351 74.6285 64.8938 78.1126 66.4458ZM112.928 60.3217C107.817 59.9777 106.692 67.5531 111.837 68.283C117.417 69.3484 118.635 61.0767 112.928 60.3217Z" fill="#EDEBEB"/>
<path d="M222.416 88.5514C220.517 88.9206 219.861 90.2293 219.861 91.9072C220.227 113.115 216.206 134.114 216.769 155.322L211.922 155.993C206.981 156.228 206.938 159.734 206.947 163.249C207.004 184.843 207.066 206.44 207.134 228.04C199.987 230.515 193.079 231.077 186.63 225.917C187.005 218.166 187.371 210.749 187.823 201.454C176.493 207.251 165.129 203.426 154.328 206.051C149.847 207.025 149.805 210.624 149.753 213.963C149.66 220.674 149.822 227.452 149.873 234.206C144.762 237.394 139.165 236.102 133.909 235.045C129.718 234.206 128.5 230.615 128.798 226.488C129.292 220.531 129.718 214.533 127.196 208.946C124.786 206.999 122.179 207.394 119.53 207.327C114.862 213.577 121.787 224.726 111.233 227.461C105.449 228.946 98.5571 229.877 92.7134 224.105C91.4953 215.355 92.0405 206.068 91.9979 196.421C100.278 194.541 108.183 195.775 115.969 195.959C121.932 196.102 126.864 194.843 130.859 190.456C137.095 181.882 149.498 181.756 155.197 172.494C156.952 169.608 159.371 166.622 154.081 163.946C148.919 167.234 146.925 174.961 138.748 175.204V120.758C138.748 99.34 121.259 79.3317 99.4856 76.7646C79.6289 74.4072 60.3515 73.6942 40.35 71.4878C45.2737 64.8435 45.5293 58.065 43.8256 51.018C41.8152 42.3267 47.48 36.3535 51.9863 29.9441C53.5367 27.7209 56.91 26.6723 56.6715 22.5784C44.6007 24.4576 35.8011 19.9105 30 9.47435C45.6741 2.41894 57.4978 6.16894 62.677 20.179C88.4797 3.68571 130.314 -0.861263 149.873 27.788C153.127 18.5598 158.272 12.9978 168.409 15.6153C176.076 17.6035 178.299 20.8921 176.076 28.6354C175.352 31.1522 176.732 33.9542 174.636 36.1354C170.607 35.3636 170.607 35.3636 167.702 31.7646C165.061 31.429 163.443 33.4424 161.313 34.4072C159.422 35.2461 157.412 35.8753 154.498 36.9239C159.763 48.0397 161.075 59.617 156.611 71.6639C163.962 67.1841 164.201 60.4978 164.226 53.283C177.379 49.8434 190.438 45.9005 204.263 45.8586C218.345 45.4811 224.384 55.4559 224.06 65.0616C222.859 72.8337 222.308 80.6903 222.416 88.5514ZM78.1126 66.4458C80.8726 66.2109 82.7211 64.9358 82.8063 61.6556C81.2559 58.1992 78.6067 56.7562 75.7274 59.7512C73.2826 62.3351 74.6285 64.8938 78.1126 66.4458ZM112.928 60.3217C107.817 59.9777 106.692 67.5531 111.837 68.283C117.417 69.3484 118.635 61.0767 112.928 60.3217Z" fill="url(#paint0_radial_229_1820)"/>
<path d="M6.75519 161.913C6.58482 138.188 6.12482 114.455 6.39741 90.7383C6.50815 80.9733 13.2122 75.3021 22.8893 75.9816C48.4448 77.7518 74.1282 78.3222 99.5559 82.2065C118.62 85.1175 134.056 103.029 134.005 121.955C133.954 138.138 134.056 154.32 133.945 170.503C133.945 173.624 134.857 177.878 129.124 177.265C127.488 175.227 124.864 174.925 122.709 174.681C84.0267 170.487 45.3441 166.577 6.75519 161.913Z" fill="#FBD2D2"/>
<path d="M6.75519 161.913C6.58482 138.188 6.12482 114.455 6.39741 90.7383C6.50815 80.9733 13.2122 75.3021 22.8893 75.9816C48.4448 77.7518 74.1282 78.3222 99.5559 82.2065C118.62 85.1175 134.056 103.029 134.005 121.955C133.954 138.138 134.056 154.32 133.945 170.503C133.945 173.624 134.857 177.878 129.124 177.265C127.488 175.227 124.864 174.925 122.709 174.681C84.0267 170.487 45.3441 166.577 6.75519 161.913Z" fill="url(#paint1_linear_229_1820)"/>
<path d="M6.75499 161.913C45.3439 166.586 84.0265 170.495 122.675 174.681C124.83 174.925 127.454 175.227 129.09 177.265C127.301 179.69 124.728 178.591 122.505 178.507C86.599 177.114 50.8128 173.985 15.018 170.956C9.37019 170.487 6.20981 167.836 6.75499 161.913Z" fill="#B18031"/>
<path d="M216.779 154.882C216.217 133.674 220.238 112.676 219.871 91.468C219.871 89.7902 220.493 88.4479 222.427 88.1123C221.047 123.557 227.061 159.329 219.735 194.505L216.813 194.404L216.779 154.882Z" fill="#B69F5B"/>
<path d="M207.145 227.601C207.089 206.007 207.026 184.41 206.957 162.81C206.957 159.295 206.957 155.789 211.932 155.554C210.365 176.057 212.026 196.577 211.711 217.097C211.643 221.233 212.196 225.587 207.145 227.601Z" fill="#B69F5B"/>
<path d="M122.488 188.574C107.35 188.272 91.8979 191.787 77.4336 182.953L122.667 185.747C122.599 186.695 122.547 187.634 122.488 188.574Z" fill="#B69F5B"/>
<path d="M180.218 211.015C185.38 213.624 181.521 216.829 181.24 219.681C168.156 223.876 160.838 221.67 160.054 213.507C167.023 214.597 174.263 217.869 180.218 211.015Z" fill="#FBD2D2"/>
<path d="M149.926 233.767C149.875 227.055 149.713 220.268 149.807 213.523C149.858 210.168 149.9 206.585 154.381 205.612C154.421 212.324 154.46 219.035 154.5 225.747C154.483 229.27 153.785 232.382 149.926 233.767Z" fill="#B69F5B"/>
<path d="M180.218 211.015C174.255 217.869 167.023 214.597 160.054 213.532C158.896 210.604 160.906 210.604 162.849 210.646C168.667 210.73 174.425 210.881 180.218 211.015Z" fill="#D39F9F"/>
<path d="M100.459 133.255C100.5 138 77.3057 138 77.3057 134.211C77.3057 130 100.431 130 100.459 133.255Z" fill="#0F0F0F"/>
<path d="M43.9997 133C36.4608 131.549 33.9998 124 34.0739 122.089C33.9998 120 36.9998 117 39.185 120.008C41.9998 123 44.8801 126.482 45.9997 130C45.9997 132 45.9997 133 43.9997 133Z" fill="#0F0F0F"/>
<path d="M78.0894 65.9817C74.6053 64.4296 73.2168 61.8709 75.7042 59.2702C78.5835 56.2753 81.2326 57.7181 82.783 61.1745C82.6978 64.4715 80.8494 65.7468 78.0894 65.9817Z" fill="#0F0F0F"/>
<path d="M112.904 59.8575C118.612 60.6125 117.394 68.8844 111.814 67.8189C106.669 67.1142 107.751 59.5136 112.904 59.8575Z" fill="#0F0F0F"/>
<path d="M178.625 43.3978C187.995 41.5606 197.366 40.3022 206.974 40.5707C220.672 40.9566 230.239 49.329 229.37 62.5421C226.814 101.896 228.151 141.233 228.518 180.579C228.594 190.386 222.555 198.071 217.086 204.958V221.25C217.648 240.545 188.77 236.091 179.783 226.049H159.509C160.361 232.852 158.019 239.346 151.153 239.656C142.106 240.067 131.39 244.22 123.944 233.507V220.68C122.65 226.233 120.409 231.812 114.455 231.913C106.132 232.055 96.932 235.638 89.5379 228.456C87.4765 226.451 87.2039 223.909 87.0846 221.267C86.9228 217.643 86.6757 214.035 86.4628 210.42C87.6639 205.017 87.2465 199.623 86.6587 193.951C78.5661 191.745 70.3457 189.874 67.722 180.722C49.075 179.136 30.905 177.701 12.752 176.007C4.16529 175.168 1.32862 171.938 1.30307 163.297C1.23492 139.024 1.23492 114.754 1.30307 90.4867C1.30307 75.6294 11.8661 70.3525 25.4446 69.6394C52.4568 67.0304 27.7957 46.6696 46.0594 28.1378C35.6072 26.2754 30.0446 19.5556 24.8568 12.3995C24.2118 11.3738 23.8701 10.1914 23.8701 8.98508C23.8701 7.77867 24.2118 6.59622 24.8568 5.57061C34.4061 -0.905894 55.3702 -2.60053 66.0694 10.2602C94.4787 0.276992 122.292 -5.00824 149.049 16.1327C152.941 9.99179 159.322 9.48844 166.162 9.82401C178.471 10.4113 183.804 15.9398 181.879 27.7351C181.155 32.1394 182.279 37.2905 178.378 40.9649C173.352 41.6025 168.377 41.8962 162.763 37.475C162.21 41.9213 162.261 44.522 164.356 47.4247L178.625 43.3978ZM160.054 213.507C160.838 221.67 168.156 223.901 181.24 219.681C181.521 216.829 185.38 213.624 180.218 211.015C174.425 210.881 168.641 210.73 162.848 210.621C160.898 210.571 158.896 210.571 160.054 213.507ZM129.09 177.257C134.823 177.869 133.886 173.616 133.911 170.495C134.022 154.312 133.911 138.129 133.971 121.946C134.022 103.02 118.586 85.1092 99.5216 82.1982C74.1279 78.3139 48.4105 77.7435 22.855 75.9733C13.1354 75.2938 6.47381 81.0068 6.36307 90.73C6.09048 114.446 6.55047 138.18 6.72085 161.904C6.17566 167.836 9.33606 170.487 14.9839 170.965C50.7616 173.977 86.5394 177.106 122.471 178.515C124.728 178.582 127.301 179.681 129.09 177.257ZM211.932 155.554L216.779 154.883V194.371L219.701 194.472C228.518 151.552 218.142 107.643 224.046 64.5891C223.27 33.4062 182.961 48.4566 164.203 52.8441C164.203 60.0589 163.939 66.7451 156.587 71.225C161.051 59.178 159.739 47.6009 154.475 36.4851C157.363 35.4113 159.373 34.8072 161.29 33.9683C163.394 33.0119 165.038 30.9901 167.678 31.3257C170.583 34.9247 170.583 34.9247 174.613 35.6965C176.708 33.5153 175.328 30.6629 176.052 28.1965C178.301 20.4532 176.112 17.1646 168.386 15.1764C158.249 12.5589 153.103 18.1294 149.849 27.3492C130.333 -1.32536 88.4561 3.21323 62.6535 19.7149C57.4742 5.70484 45.6165 1.95484 29.9765 9.01025C35.7776 19.4465 44.5772 23.9935 56.6224 22.1143C56.8609 26.2082 53.4876 27.2569 51.9372 29.48C47.4565 35.8894 41.7916 41.8626 43.8957 50.6209C45.5994 57.7014 45.3439 64.4465 40.4202 71.0908C60.4131 73.2972 79.7076 74.0102 99.5557 76.3676C121.329 78.9347 138.818 98.943 138.818 120.361V174.807C147.004 174.564 148.997 166.837 154.151 163.549C159.441 166.2 157.022 169.212 155.267 172.097C149.568 181.326 137.157 181.493 130.93 190.059C126.934 194.446 121.977 195.705 116.039 195.562C108.245 195.378 100.348 194.144 92.0679 196.024C92.0679 205.629 91.5653 214.916 92.7835 223.708C98.6272 229.463 105.519 228.532 111.303 227.064C121.857 224.354 114.932 213.205 119.6 206.93C122.224 206.997 124.83 206.602 127.267 208.549C129.822 214.136 129.362 220.134 128.868 226.091C128.527 230.218 129.72 233.809 133.979 234.648C139.235 235.696 144.798 236.988 149.943 233.809C153.844 232.441 154.543 229.312 154.517 225.772C154.477 219.06 154.438 212.349 154.398 205.638C165.2 203.012 176.546 206.837 187.893 201.04C187.441 210.336 187.041 217.752 186.7 225.503C193.149 230.663 200.057 230.101 207.204 227.626C212.256 225.612 211.702 221.258 211.77 217.123C212.026 196.577 210.407 176.057 211.932 155.554ZM122.488 188.574C122.547 187.634 122.599 186.695 122.658 185.747L77.4331 182.953C91.8976 191.787 107.333 188.272 122.488 188.574Z" fill="#0F0F0F"/>
<defs>
<radialGradient id="paint0_radial_229_1820" cx="0" cy="0" r="1" gradientUnits="userSpaceOnUse" gradientTransform="translate(179 151.5) rotate(166.155) scale(181.781 153.239)">
<stop offset="0.494792" stop-color="#FED050"/>
<stop offset="1" stop-color="white" stop-opacity="0"/>
</radialGradient>
<linearGradient id="paint1_linear_229_1820" x1="134" y1="177" x2="9.00001" y2="-7.00001" gradientUnits="userSpaceOnUse">
<stop offset="0.276042" stop-color="#FEAB26"/>
<stop offset="1" stop-color="white" stop-opacity="0"/>
</linearGradient>
</defs>
</svg>
