<svg xmlns="http://www.w3.org/2000/svg" viewBox="0 0 309.83 336.12"><defs><style>.cls-1{fill:#fcfcfc;}.cls-2{fill:#0f0f0f;}.cls-3{fill:#cdcdcd;}.cls-4{fill:#edebeb;}.cls-5{fill:#fbd2d2;}.cls-6{fill:#d39f9f;}</style></defs><g id="Слой_2" data-name="Слой 2"><g id="Слой_1-2" data-name="Слой 1"><path class="cls-1" d="M0,336.12V0H309.83V336.12Zm121.47-65.3c-25.53-1-50.62,2.71-75.39,8.2-9.54,2.11-20,4.3-25.51,14.18,4.08,6.9,10.15,9.27,16.37,11.34C65.44,314,95.25,315.61,124.75,317c46.1,2.12,92.25.46,137.63-9.29,9.92-2.13,20.78-4.21,27-14.82-3.91-5.19-8-9.07-14.61-9.13V264.31c6.41-8.21,13.51-17.37,13.42-29.06-.4-46.9-2-93.79,1-140.7,1-15.75-10.21-25.73-26.29-26.19-11.25-.32-22.3,1.18-33.28,3.37l-.29-3C234,64.4,232.66,58.26,233.51,53c2.26-14.06-4-20.65-18.45-21.35-8-.4-15.52.2-20.09,7.52-31.39-25.15-64.06-18.85-97.41-7-9.73-12.59-34-15.68-48.4-5.59v8.14c6.09,8.53,12.62,16.54,24.89,18.76C52.61,75.62,81.56,99.9,49.85,103c-15.94.83-28.28,7.13-28.34,24.85q-.18,43.4,0,86.79c0,10.3,3.36,14.19,13.44,15.15,21.31,2,42.64,3.73,64.53,5.62,3.08,10.91,12.73,13.14,22.23,15.77C122.39,258,122.88,264.38,121.47,270.82Z"/><path class="cls-2" d="M229.69,71.73c11-2.19,22-3.69,33.28-3.37,16.08.46,27.31,10.44,26.29,26.19-3,46.91-1.43,93.8-1,140.7.09,11.69-7,20.85-13.42,29.06v19.42c.66,23-33.24,17.69-43.79,5.72h-23.8c1,8.11-1.75,15.85-9.81,16.22-10.62.49-23.2,5.44-31.94-7.33V283.05c-1.52,6.62-4.15,13.27-11.14,13.39-9.77.17-20.57,4.44-29.25-4.12-2.42-2.39-2.74-5.42-2.88-8.57-.19-4.32-.48-8.62-.73-12.93,1.41-6.44.92-12.87.23-19.63-9.5-2.63-19.15-4.86-22.23-15.77-21.89-1.89-43.22-3.6-64.53-5.62-10.08-1-13.41-4.85-13.44-15.15q-.12-43.4,0-86.79c0-17.71,12.4-24,28.34-24.85,31.71-3.11,2.76-27.38,24.2-49.47-12.27-2.22-18.8-10.23-24.89-18.76a7.73,7.73,0,0,1,0-8.14C60.39,18.92,85,16.9,97.56,32.23c33.35-11.9,66-18.2,97.41,7,4.57-7.32,12.06-7.92,20.09-7.52,14.45.7,20.71,7.29,18.45,21.35-.85,5.25.47,11.39-4.11,15.77-5.9.76-11.74,1.11-18.33-4.16-.65,5.3-.59,8.4,1.87,11.86ZM207.89,274.5c.92,9.73,9.51,12.39,24.87,7.36.33-3.4,4.86-7.22-1.2-10.33-6.8-.16-13.59-.34-20.39-.47C208.88,271,206.53,271,207.89,274.5Zm-36.35-43.21c6.73.73,5.63-4.34,5.66-8.06.13-19.29,0-38.58.07-57.87.06-22.56-18.06-43.91-40.44-47.38-29.81-4.63-60-5.31-90-7.42-11.41-.81-19.23,6-19.36,17.59-.32,28.27.22,56.56.42,84.84-.64,7.07,3.07,10.23,9.7,10.8,42,3.59,84,7.32,126.18,9C166.42,232.87,169.44,234.18,171.54,231.29Zm97.25-25.87,5.69-.8v47.07l3.43.12c10.35-51.16-1.83-103.5,5.1-154.82-.91-37.17-48.23-19.23-70.25-14,0,8.6-.31,16.57-8.94,21.91,5.24-14.36,3.7-28.16-2.48-41.41,3.39-1.28,5.75-2,8-3,2.47-1.14,4.4-3.55,7.5-3.15,3.41,4.29,3.41,4.29,8.14,5.21,2.46-2.6.84-6,1.69-8.94,2.64-9.23.07-13.15-9-15.52-11.9-3.12-17.94,3.52-21.76,14.51C173,18.42,123.84,23.83,93.55,43.5c-6.08-16.7-20-21.17-38.36-12.76C62,43.18,72.33,48.6,86.47,46.36c.28,4.88-3.68,6.13-5.5,8.78-5.26,7.64-11.91,14.76-9.44,25.2,2,8.44,1.7,16.48-4.08,24.4,23.47,2.63,46.12,3.48,69.42,6.29,25.56,3.06,46.09,26.91,46.09,52.44v64.9c9.61-.29,11.95-9.5,18-13.42,6.21,3.16,3.37,6.75,1.31,10.19-6.69,11-21.26,11.2-28.57,21.41-4.69,5.23-10.51,6.73-17.48,6.56-9.15-.22-18.42-1.69-28.14.55,0,11.45-.59,22.52.84,33,6.86,6.86,14.95,5.75,21.74,4,12.39-3.23,4.26-16.52,9.74-24,3.08.08,6.14-.39,9,1.93,3,6.66,2.46,13.81,1.88,20.91-.4,4.92,1,9.2,6,10.2,6.17,1.25,12.7,2.79,18.74-1,4.58-1.63,5.4-5.36,5.37-9.58q-.07-12-.14-24c12.68-3.13,26,1.43,39.32-5.48-.53,11.08-1,19.92-1.4,29.16,7.57,6.15,15.68,5.48,24.07,2.53,5.93-2.4,5.28-7.59,5.36-12.52C268.9,254.32,267,229.86,268.79,205.42Zm-105,39.36c.07-1.12.13-2.24.2-3.37l-53.09-3.33C127.88,248.61,146,244.42,163.79,244.78Z"/><path class="cls-3" d="M121.47,270.82c.25,4.31.54,8.61.73,12.93.14,3.15.46,6.18,2.88,8.57,8.68,8.56,19.48,4.29,29.25,4.12,7-.12,9.62-6.77,11.14-13.39v15.29c8.74,12.77,21.32,7.82,31.94,7.33,8.06-.37,10.81-8.11,9.81-16.22H231c10.55,12,44.45,17.29,43.79-5.72,6.6.06,10.7,3.94,14.61,9.13-6.26,10.61-17.12,12.69-27,14.82C217,317.43,170.85,319.09,124.75,317c-29.5-1.36-59.31-3-87.81-12.43-6.22-2.07-12.29-4.44-16.37-11.34,5.47-9.88,16-12.07,25.51-14.18C70.85,273.53,95.94,269.79,121.47,270.82Z"/><path class="cls-4" d="M281.07,125c-2.23.44-3,2-3,4,.43,25.28-4.29,50.31-3.63,75.59l-5.69.8c-5.8.28-5.85,4.46-5.84,8.65q.1,38.61.22,77.23c-8.39,2.95-16.5,3.62-24.07-2.53.44-9.24.87-18.08,1.4-29.16-13.3,6.91-26.64,2.35-39.32,5.48-5.26,1.16-5.31,5.45-5.37,9.43-.11,8,.08,16.08.14,24.13-6,3.8-12.57,2.26-18.74,1-4.92-1-6.35-5.28-6-10.2.58-7.1,1.08-14.25-1.88-20.91-2.83-2.32-5.89-1.85-9-1.93-5.48,7.45,2.65,20.74-9.74,24-6.79,1.77-14.88,2.88-21.74-4-1.43-10.43-.79-21.5-.84-33,9.72-2.24,19-.77,28.14-.55,7,.17,12.79-1.33,17.48-6.56,7.32-10.22,21.88-10.37,28.57-21.41,2.06-3.44,4.9-7-1.31-10.19-6.06,3.92-8.4,13.13-18,13.42v-64.9c0-25.53-20.53-49.38-46.09-52.44-23.31-2.81-45.94-3.66-69.42-6.29,5.78-7.92,6.08-16,4.08-24.4C69.06,69.9,75.71,62.78,81,55.14c1.82-2.65,5.78-3.9,5.5-8.78C72.33,48.6,62,43.18,55.19,30.74c18.4-8.41,32.28-3.94,38.36,12.76,30.29-19.66,79.4-25.08,102.36,9.07,3.82-11,9.86-17.63,21.76-14.51,9,2.37,11.61,6.29,9,15.52-.85,3,.77,6.34-1.69,8.94-4.73-.92-4.73-.92-8.14-5.21-3.1-.4-5,2-7.5,3.15-2.22,1-4.58,1.75-8,3,6.18,13.25,7.72,27.05,2.48,41.41,8.63-5.34,8.91-13.31,8.94-21.91,15.44-4.1,30.77-8.8,47-8.85C276.29,73.66,283.38,85.55,283,97A170.58,170.58,0,0,0,281.07,125ZM111.67,98.65c3.24-.28,5.41-1.8,5.51-5.71-1.82-4.12-4.93-5.84-8.31-2.27C106,93.75,107.58,96.8,111.67,98.65Zm40.87-7.3c-6-.41-7.32,8.62-1.28,9.49C157.81,102.11,159.24,92.25,152.54,91.35Z"/><path class="cls-5" d="M27.93,213c-.2-28.28-.74-56.57-.42-84.84.13-11.64,8-18.4,19.36-17.59,30,2.11,60.15,2.79,90,7.42,22.38,3.47,40.5,24.82,40.44,47.38-.06,19.29.06,38.58-.07,57.87,0,3.72,1.07,8.79-5.66,8.06-1.92-2.43-5-2.79-7.53-3.08C118.64,223.22,73.23,218.56,27.93,213Zm110-34.15c-8.26-5.72-23.17-4.86-27.18,1.14C117.77,184.88,131.88,184.55,137.93,178.84Zm-64.56,1c1.66-8.33-3.83-12.29-7.43-16.77-1.61-2-4.62-1.35-6,2.48C63,170.91,64.52,178.09,73.37,179.82Z"/><path class="cls-6" d="M27.93,213c45.3,5.57,90.71,10.23,136.08,15.22,2.53.29,5.61.65,7.53,3.08-2.1,2.89-5.12,1.58-7.73,1.48-42.15-1.66-84.16-5.39-126.18-9C31,223.22,27.29,220.06,27.93,213Z"/><path class="cls-3" d="M274.48,204.62c-.66-25.28,4.06-50.31,3.63-75.59,0-2,.73-3.6,3-4-1.62,42.25,5.44,84.89-3.16,126.82l-3.43-.12Z"/><path class="cls-3" d="M263.17,291.3q-.1-38.61-.22-77.23c0-4.19,0-8.37,5.84-8.65-1.84,24.44.11,48.9-.26,73.36C268.45,283.71,269.1,288.9,263.17,291.3Z"/><path class="cls-3" d="M163.79,244.78c-17.77-.36-35.91,3.83-52.89-6.7L164,241.41C163.92,242.54,163.86,243.66,163.79,244.78Z"/><path class="cls-5" d="M231.56,271.53c6.06,3.11,1.53,6.93,1.2,10.33-15.36,5-23.95,2.37-24.87-7.36C216.07,275.8,224.57,279.7,231.56,271.53Z"/><path class="cls-3" d="M196,298.65c-.06-8-.25-16.09-.14-24.13.06-4,.11-8.27,5.37-9.43q.07,12,.14,24C201.35,293.29,200.53,297,196,298.65Z"/><path class="cls-6" d="M231.56,271.53c-7,8.17-15.49,4.27-23.67,3-1.36-3.49,1-3.49,3.28-3.44C218,271.19,224.76,271.37,231.56,271.53Z"/><path class="cls-2" d="M111.67,98.65c-4.09-1.85-5.72-4.9-2.8-8,3.38-3.57,6.49-1.85,8.31,2.27C117.08,96.85,114.91,98.37,111.67,98.65Z"/><path class="cls-2" d="M152.54,91.35c6.7.9,5.27,10.76-1.28,9.49C145.22,100,146.49,90.94,152.54,91.35Z"/><path class="cls-2" d="M137.93,178.84c-6.05,5.71-20.16,6-27.18,1.14C114.76,174,129.67,173.12,137.93,178.84Z"/><path class="cls-2" d="M73.37,179.82C64.52,178.09,63,170.91,60,165.53c1.35-3.83,4.36-4.49,6-2.48C69.54,167.53,75,171.49,73.37,179.82Z"/></g></g></svg>