<svg width="32" height="32" viewBox="0 0 32 32" fill="none" xmlns="http://www.w3.org/2000/svg">
<path d="M8.00049 30.5006L6.51207 30.6867C6.6059 31.4373 7.244 32.0006 8.00049 32.0006V30.5006ZM24.0005 30.5006V32.0006C24.757 32.0006 25.3951 31.4373 25.4889 30.6867L24.0005 30.5006ZM2 5.00061C1.17157 5.00061 0.5 5.67218 0.5 6.50061C0.5 7.32904 1.17157 8.00061 2 8.00061L2 5.00061ZM30 8.00061C30.8284 8.00061 31.5 7.32904 31.5 6.50061C31.5 5.67218 30.8284 5.00061 30 5.00061V8.00061ZM10.5005 4.00061L9.07746 3.52627C9.02648 3.67922 9.00049 3.83939 9.00049 4.00061H10.5005ZM11.5005 2.00061L11.0261 0.577585C10.8052 0.651225 10.6045 0.775288 10.4398 0.93995L11.5005 2.00061ZM19.0005 1.50061L19.4748 0.0775852C19.3219 0.026602 19.1617 0.000610173 19.0005 0.000610173V1.50061ZM21.5005 4.00061L23.0005 4.00061C23.0005 3.83939 22.9745 3.67922 22.9235 3.52627L21.5005 4.00061ZM21.0005 2.50061L22.4235 2.02627C22.3499 1.80535 22.2258 1.60461 22.0612 1.43995L21.0005 2.50061ZM11.0005 2.50061L9.93983 1.43995C9.77517 1.60461 9.6511 1.80535 9.57746 2.02627L11.0005 2.50061ZM13.0005 1.50061V0.000610173C12.8393 0.000610173 12.6791 0.026602 12.5261 0.0775852L13.0005 1.50061ZM20.5005 2.00061L21.5612 0.93995C21.3965 0.775288 21.1957 0.651225 20.9748 0.577585L20.5005 2.00061ZM8.00049 32.0006H24.0005V29.0006L8.00049 29.0006L8.00049 32.0006ZM25.4889 30.6867L28.4889 6.68666L25.5121 6.31456L22.5121 30.3146L25.4889 30.6867ZM3.51207 6.68666L6.51207 30.6867L9.48891 30.3146L6.48891 6.31456L3.51207 6.68666ZM5.00049 5.00061H2L2 8.00061H5.00049L5.00049 5.00061ZM27.0005 8.00061H30V5.00061H27.0005V8.00061ZM27.0005 5.00061L21.5005 5.00061V8.00061L27.0005 8.00061V5.00061ZM21.5005 5.00061L10.5005 5.00061L10.5005 8.00061L21.5005 8.00061V5.00061ZM10.5005 5.00061L5.00049 5.00061L5.00049 8.00061L10.5005 8.00061L10.5005 5.00061ZM12.0005 6.50061L12.0005 4.00061H9.00049V6.50061H12.0005ZM20.0005 4.00061V6.50061L23.0005 6.50061V4.00061L20.0005 4.00061ZM19.5775 2.97495L20.0775 4.47495L22.9235 3.52627L22.4235 2.02627L19.5775 2.97495ZM11.9235 4.47495L12.4235 2.97495L9.57746 2.02627L9.07746 3.52627L11.9235 4.47495ZM12.0611 3.56127L12.5611 3.06127L10.4398 0.93995L9.93983 1.43995L12.0611 3.56127ZM11.9748 3.42364L13.4748 2.92364L12.5261 0.0775852L11.0261 0.577585L11.9748 3.42364ZM13.0005 3.00061L19.0005 3.00061V0.000610173L13.0005 0.000610173V3.00061ZM18.5261 2.92364L20.0261 3.42364L20.9748 0.577585L19.4748 0.0775852L18.5261 2.92364ZM19.4398 3.06127L19.9398 3.56127L22.0612 1.43995L21.5612 0.93995L19.4398 3.06127Z" fill="black"/>
</svg>
